<?xml version="1.0" encoding="UTF-8" standalone="no"?>
<!DOCTYPE svg PUBLIC "-//W3C//DTD SVG 1.1//EN"
 "http://www.w3.org/Graphics/SVG/1.1/DTD/svg11.dtd">
<!-- Generated by graphviz version 2.46.0 (20210119.1425)
 -->
<!-- Title: dependencies Pages: 1 -->
<svg width="2138pt" height="284pt"
 viewBox="0.00 0.00 2138.00 284.00" xmlns="http://www.w3.org/2000/svg" xmlns:xlink="http://www.w3.org/1999/xlink">
<g id="graph0" class="graph" transform="scale(1 1) rotate(0) translate(4 280)">
<title>dependencies</title>
<polygon fill="white" stroke="transparent" points="-4,4 -4,-280 2134,-280 2134,4 -4,4"/>
<text text-anchor="start" x="1044.01" y="-42.4" font-family="sans-serif" font-weight="bold" font-size="14.00">Legend</text>
<polygon fill="#ffffb3" stroke="transparent" points="831,-10 831,-30 851,-30 851,-10 831,-10"/>
<text text-anchor="start" x="854.63" y="-15.4" font-family="sans-serif" font-size="14.00"> &#160;Declarations</text>
<polygon fill="#8dd3c7" stroke="transparent" points="944,-10 944,-30 964,-30 964,-10 944,-10"/>
<text text-anchor="start" x="967.73" y="-15.4" font-family="sans-serif" font-size="14.00"> &#160;Module</text>
<polygon fill="#80b1d3" stroke="transparent" points="1030,-10 1030,-30 1050,-30 1050,-10 1030,-10"/>
<text text-anchor="start" x="1053.78" y="-15.4" font-family="sans-serif" font-size="14.00"> &#160;Bootstrap</text>
<polygon fill="#fdb462" stroke="transparent" points="1127,-10 1127,-30 1147,-30 1147,-10 1127,-10"/>
<text text-anchor="start" x="1150.67" y="-15.4" font-family="sans-serif" font-size="14.00"> &#160;Providers</text>
<polygon fill="#fb8072" stroke="transparent" points="1223,-10 1223,-30 1243,-30 1243,-10 1223,-10"/>
<text text-anchor="start" x="1246.73" y="-15.4" font-family="sans-serif" font-size="14.00"> &#160;Exports</text>
<g id="clust1" class="cluster">
<title>cluster_AppModule</title>
<polygon fill="none" stroke="black" stroke-dasharray="1,5" points="8,-70 8,-268 2122,-268 2122,-70 8,-70"/>
</g>
<g id="clust2" class="cluster">
<title>cluster_AppModule_declarations</title>
<polygon fill="none" stroke="black" points="168,-78 168,-130 2114,-130 2114,-78 168,-78"/>
</g>
<g id="clust16" class="cluster">
<title>cluster_AppModule_imports</title>
<polygon fill="none" stroke="black" points="16,-78 16,-130 160,-130 160,-78 16,-78"/>
</g>
<g id="clust18" class="cluster">
<title>cluster_AppModule_bootstrap</title>
<polygon fill="none" stroke="black" points="1066,-208 1066,-260 1190,-260 1190,-208 1066,-208"/>
</g>
<!-- AlertasComponent -->
<g id="node1" class="node">
<title>AlertasComponent</title>
<polygon fill="#ffffb3" stroke="black" points="2105.75,-122 1984.25,-122 1984.25,-86 2105.75,-86 2105.75,-122"/>
<text text-anchor="middle" x="2045" y="-99.8" font-family="Times,serif" font-size="14.00">AlertasComponent</text>
</g>
<!-- AppModule -->
<g id="node14" class="node">
<title>AppModule</title>
<polygon fill="#8dd3c7" stroke="black" points="1169.66,-187 1166.66,-191 1145.66,-191 1142.66,-187 1086.34,-187 1086.34,-151 1169.66,-151 1169.66,-187"/>
<text text-anchor="middle" x="1128" y="-164.8" font-family="Times,serif" font-size="14.00">AppModule</text>
</g>
<!-- AlertasComponent&#45;&gt;AppModule -->
<g id="edge1" class="edge">
<title>AlertasComponent&#45;&gt;AppModule</title>
<path fill="none" stroke="black" d="M2045,-122.09C2045,-145.13 2045,-182 2045,-182 2045,-182 1179.78,-182 1179.78,-182"/>
<polygon fill="black" stroke="black" points="1179.78,-178.5 1169.78,-182 1179.78,-185.5 1179.78,-178.5"/>
</g>
<!-- ApoieComponent -->
<g id="node2" class="node">
<title>ApoieComponent</title>
<polygon fill="#ffffb3" stroke="black" points="1965.55,-122 1850.45,-122 1850.45,-86 1965.55,-86 1965.55,-122"/>
<text text-anchor="middle" x="1908" y="-99.8" font-family="Times,serif" font-size="14.00">ApoieComponent</text>
</g>
<!-- ApoieComponent&#45;&gt;AppModule -->
<g id="edge2" class="edge">
<title>ApoieComponent&#45;&gt;AppModule</title>
<path fill="none" stroke="black" d="M1908,-122.04C1908,-143.66 1908,-177 1908,-177 1908,-177 1179.66,-177 1179.66,-177"/>
<polygon fill="black" stroke="black" points="1179.66,-173.5 1169.66,-177 1179.66,-180.5 1179.66,-173.5"/>
</g>
<!-- AppComponent -->
<g id="node3" class="node">
<title>AppComponent</title>
<polygon fill="#ffffb3" stroke="black" points="1832.94,-122 1727.06,-122 1727.06,-86 1832.94,-86 1832.94,-122"/>
<text text-anchor="middle" x="1780" y="-99.8" font-family="Times,serif" font-size="14.00">AppComponent</text>
</g>
<!-- AppComponent&#45;&gt;AppModule -->
<g id="edge3" class="edge">
<title>AppComponent&#45;&gt;AppModule</title>
<path fill="none" stroke="black" d="M1780,-122.22C1780,-142.37 1780,-172 1780,-172 1780,-172 1179.78,-172 1179.78,-172"/>
<polygon fill="black" stroke="black" points="1179.78,-168.5 1169.78,-172 1179.78,-175.5 1179.78,-168.5"/>
</g>
<!-- CadastrarComponent -->
<g id="node4" class="node">
<title>CadastrarComponent</title>
<polygon fill="#ffffb3" stroke="black" points="1709.47,-122 1574.53,-122 1574.53,-86 1709.47,-86 1709.47,-122"/>
<text text-anchor="middle" x="1642" y="-99.8" font-family="Times,serif" font-size="14.00">CadastrarComponent</text>
</g>
<!-- CadastrarComponent&#45;&gt;AppModule -->
<g id="edge4" class="edge">
<title>CadastrarComponent&#45;&gt;AppModule</title>
<path fill="none" stroke="black" d="M1642,-122.22C1642,-140.83 1642,-167 1642,-167 1642,-167 1180.06,-167 1180.06,-167"/>
<polygon fill="black" stroke="black" points="1180.06,-163.5 1170.06,-167 1180.06,-170.5 1180.06,-163.5"/>
</g>
<!-- ConhecaInstComponent -->
<g id="node5" class="node">
<title>ConhecaInstComponent</title>
<polygon fill="#ffffb3" stroke="black" points="1556.81,-122 1405.19,-122 1405.19,-86 1556.81,-86 1556.81,-122"/>
<text text-anchor="middle" x="1481" y="-99.8" font-family="Times,serif" font-size="14.00">ConhecaInstComponent</text>
</g>
<!-- ConhecaInstComponent&#45;&gt;AppModule -->
<g id="edge5" class="edge">
<title>ConhecaInstComponent&#45;&gt;AppModule</title>
<path fill="none" stroke="black" d="M1481,-122.03C1481,-139.06 1481,-162 1481,-162 1481,-162 1179.88,-162 1179.88,-162"/>
<polygon fill="black" stroke="black" points="1179.88,-158.5 1169.88,-162 1179.88,-165.5 1179.88,-158.5"/>
</g>
<!-- FeedComponent -->
<g id="node6" class="node">
<title>FeedComponent</title>
<polygon fill="#ffffb3" stroke="black" points="1387.05,-122 1278.95,-122 1278.95,-86 1387.05,-86 1387.05,-122"/>
<text text-anchor="middle" x="1333" y="-99.8" font-family="Times,serif" font-size="14.00">FeedComponent</text>
</g>
<!-- FeedComponent&#45;&gt;AppModule -->
<g id="edge6" class="edge">
<title>FeedComponent&#45;&gt;AppModule</title>
<path fill="none" stroke="black" d="M1333,-122.24C1333,-137.57 1333,-157 1333,-157 1333,-157 1179.98,-157 1179.98,-157"/>
<polygon fill="black" stroke="black" points="1179.98,-153.5 1169.98,-157 1179.98,-160.5 1179.98,-153.5"/>
</g>
<!-- LoginComponent -->
<g id="node7" class="node">
<title>LoginComponent</title>
<polygon fill="#ffffb3" stroke="black" points="1260.28,-122 1145.72,-122 1145.72,-86 1260.28,-86 1260.28,-122"/>
<text text-anchor="middle" x="1203" y="-99.8" font-family="Times,serif" font-size="14.00">LoginComponent</text>
</g>
<!-- LoginComponent&#45;&gt;AppModule -->
<g id="edge7" class="edge">
<title>LoginComponent&#45;&gt;AppModule</title>
<path fill="none" stroke="black" d="M1157.72,-122.11C1157.72,-122.11 1157.72,-140.99 1157.72,-140.99"/>
<polygon fill="black" stroke="black" points="1154.22,-140.99 1157.72,-150.99 1161.22,-140.99 1154.22,-140.99"/>
</g>
<!-- MenuInicialComponent -->
<g id="node8" class="node">
<title>MenuInicialComponent</title>
<polygon fill="#ffffb3" stroke="black" points="1127.75,-122 978.25,-122 978.25,-86 1127.75,-86 1127.75,-122"/>
<text text-anchor="middle" x="1053" y="-99.8" font-family="Times,serif" font-size="14.00">MenuInicialComponent</text>
</g>
<!-- MenuInicialComponent&#45;&gt;AppModule -->
<g id="edge8" class="edge">
<title>MenuInicialComponent&#45;&gt;AppModule</title>
<path fill="none" stroke="black" d="M1107.02,-122.11C1107.02,-122.11 1107.02,-140.99 1107.02,-140.99"/>
<polygon fill="black" stroke="black" points="1103.52,-140.99 1107.02,-150.99 1110.52,-140.99 1103.52,-140.99"/>
</g>
<!-- MenuUsuarioComponent -->
<g id="node9" class="node">
<title>MenuUsuarioComponent</title>
<polygon fill="#ffffb3" stroke="black" points="960.31,-122 801.69,-122 801.69,-86 960.31,-86 960.31,-122"/>
<text text-anchor="middle" x="881" y="-99.8" font-family="Times,serif" font-size="14.00">MenuUsuarioComponent</text>
</g>
<!-- MenuUsuarioComponent&#45;&gt;AppModule -->
<g id="edge9" class="edge">
<title>MenuUsuarioComponent&#45;&gt;AppModule</title>
<path fill="none" stroke="black" d="M881,-122.24C881,-137.57 881,-157 881,-157 881,-157 1076.1,-157 1076.1,-157"/>
<polygon fill="black" stroke="black" points="1076.1,-160.5 1086.1,-157 1076.1,-153.5 1076.1,-160.5"/>
</g>
<!-- MinhasPostagensComponent -->
<g id="node10" class="node">
<title>MinhasPostagensComponent</title>
<polygon fill="#ffffb3" stroke="black" points="783.82,-122 604.18,-122 604.18,-86 783.82,-86 783.82,-122"/>
<text text-anchor="middle" x="694" y="-99.8" font-family="Times,serif" font-size="14.00">MinhasPostagensComponent</text>
</g>
<!-- MinhasPostagensComponent&#45;&gt;AppModule -->
<g id="edge10" class="edge">
<title>MinhasPostagensComponent&#45;&gt;AppModule</title>
<path fill="none" stroke="black" d="M694,-122.03C694,-139.06 694,-162 694,-162 694,-162 1075.99,-162 1075.99,-162"/>
<polygon fill="black" stroke="black" points="1075.99,-165.5 1085.99,-162 1075.99,-158.5 1075.99,-165.5"/>
</g>
<!-- PagInicialComponent -->
<g id="node11" class="node">
<title>PagInicialComponent</title>
<polygon fill="#ffffb3" stroke="black" points="586.09,-122 447.91,-122 447.91,-86 586.09,-86 586.09,-122"/>
<text text-anchor="middle" x="517" y="-99.8" font-family="Times,serif" font-size="14.00">PagInicialComponent</text>
</g>
<!-- PagInicialComponent&#45;&gt;AppModule -->
<g id="edge11" class="edge">
<title>PagInicialComponent&#45;&gt;AppModule</title>
<path fill="none" stroke="black" d="M517,-122.22C517,-140.83 517,-167 517,-167 517,-167 1076,-167 1076,-167"/>
<polygon fill="black" stroke="black" points="1076,-170.5 1086,-167 1076,-163.5 1076,-170.5"/>
</g>
<!-- PerfilComponent -->
<g id="node12" class="node">
<title>PerfilComponent</title>
<polygon fill="#ffffb3" stroke="black" points="430.43,-122 317.57,-122 317.57,-86 430.43,-86 430.43,-122"/>
<text text-anchor="middle" x="374" y="-99.8" font-family="Times,serif" font-size="14.00">PerfilComponent</text>
</g>
<!-- PerfilComponent&#45;&gt;AppModule -->
<g id="edge12" class="edge">
<title>PerfilComponent&#45;&gt;AppModule</title>
<path fill="none" stroke="black" d="M374,-122.22C374,-142.37 374,-172 374,-172 374,-172 1076.12,-172 1076.12,-172"/>
<polygon fill="black" stroke="black" points="1076.12,-175.5 1086.12,-172 1076.12,-168.5 1076.12,-175.5"/>
</g>
<!-- RodapeComponent -->
<g id="node13" class="node">
<title>RodapeComponent</title>
<polygon fill="#ffffb3" stroke="black" points="300.1,-122 175.9,-122 175.9,-86 300.1,-86 300.1,-122"/>
<text text-anchor="middle" x="238" y="-99.8" font-family="Times,serif" font-size="14.00">RodapeComponent</text>
</g>
<!-- RodapeComponent&#45;&gt;AppModule -->
<g id="edge13" class="edge">
<title>RodapeComponent&#45;&gt;AppModule</title>
<path fill="none" stroke="black" d="M238,-122.04C238,-143.66 238,-177 238,-177 238,-177 1076.27,-177 1076.27,-177"/>
<polygon fill="black" stroke="black" points="1076.27,-180.5 1086.27,-177 1076.27,-173.5 1076.27,-180.5"/>
</g>
<!-- AppComponent  -->
<g id="node16" class="node">
<title>AppComponent </title>
<polygon fill="#80b1d3" stroke="black" points="1182.44,-252 1073.56,-252 1073.56,-216 1182.44,-216 1182.44,-252"/>
<text text-anchor="middle" x="1128" y="-229.8" font-family="Times,serif" font-size="14.00">AppComponent </text>
</g>
<!-- AppModule&#45;&gt;AppComponent  -->
<g id="edge15" class="edge">
<title>AppModule&#45;&gt;AppComponent </title>
<path fill="none" stroke="black" stroke-dasharray="1,5" d="M1128,-187.11C1128,-187.11 1128,-205.99 1128,-205.99"/>
<polygon fill="black" stroke="black" points="1124.5,-205.99 1128,-215.99 1131.5,-205.99 1124.5,-205.99"/>
</g>
<!-- AppRoutingModule -->
<g id="node15" class="node">
<title>AppRoutingModule</title>
<polygon fill="#8dd3c7" stroke="black" points="152.27,-122 149.27,-126 128.27,-126 125.27,-122 23.73,-122 23.73,-86 152.27,-86 152.27,-122"/>
<text text-anchor="middle" x="88" y="-99.8" font-family="Times,serif" font-size="14.00">AppRoutingModule</text>
</g>
<!-- AppRoutingModule&#45;&gt;AppModule -->
<g id="edge14" class="edge">
<title>AppRoutingModule&#45;&gt;AppModule</title>
<path fill="none" stroke="black" d="M88,-122.09C88,-145.13 88,-182 88,-182 88,-182 1076.27,-182 1076.27,-182"/>
<polygon fill="black" stroke="black" points="1076.27,-185.5 1086.27,-182 1076.27,-178.5 1076.27,-185.5"/>
</g>
</g>
</svg>
